<svg width="30" height="37" viewBox="0 0 30 37" fill="none" xmlns="http://www.w3.org/2000/svg">
<g id="swipe arrow">
<g id="arrow up">
<path id="Line 2" d="M0.813606 33.8837C0.226073 34.4677 0.223236 35.4175 0.807271 36.005C1.39131 36.5925 2.34105 36.5954 2.92858 36.0113L0.813606 33.8837ZM2.92858 36.0113L16.9703 22.0532L14.8553 19.9256L0.813606 33.8837L2.92858 36.0113Z" fill="#AEAEAE"/>
<path id="Line 3" d="M26.8678 36.1434C27.4519 36.731 28.4016 36.7338 28.9891 36.1498C29.5767 35.5657 29.5795 34.616 28.9955 34.0284L26.8678 36.1434ZM28.9955 34.0284L15.0373 19.9867L12.9097 22.1017L26.8678 36.1434L28.9955 34.0284Z" fill="#AEAEAE"/>
</g>
<g id="arrow up_2">
<path id="Line 2_2" d="M0.840461 24.8837C0.252928 25.4677 0.250092 26.4175 0.834127 27.005C1.41816 27.5925 2.3679 27.5954 2.95544 27.0113L0.840461 24.8837ZM2.95544 27.0113L16.9972 13.0532L14.8822 10.9256L0.840461 24.8837L2.95544 27.0113Z" fill="#AEAEAE"/>
<path id="Line 3_2" d="M26.8947 27.1434C27.4787 27.731 28.4285 27.7338 29.016 27.1498C29.6035 26.5657 29.6064 25.616 29.0223 25.0284L26.8947 27.1434ZM29.0223 25.0284L15.0642 10.9867L12.9365 13.1017L26.8947 27.1434L29.0223 25.0284Z" fill="#AEAEAE"/>
</g>
<g id="arrow up_3">
<path id="Line 2_3" d="M0.870246 14.8837C0.282713 15.4677 0.279877 16.4175 0.863912 17.005C1.44795 17.5925 2.39769 17.5954 2.98522 17.0113L0.870246 14.8837ZM2.98522 17.0113L17.027 3.0532L14.912 0.925555L0.870246 14.8837L2.98522 17.0113Z" fill="#AEAEAE"/>
<path id="Line 3_3" d="M26.9245 17.1434C27.5085 17.731 28.4582 17.7338 29.0458 17.1498C29.6333 16.5657 29.6361 15.616 29.0521 15.0284L26.9245 17.1434ZM29.0521 15.0284L15.094 0.986706L12.9663 3.10168L26.9245 17.1434L29.0521 15.0284Z" fill="#AEAEAE"/>
</g>
</g>
</svg>
